# xmcd
#
# Track frame offsets: 
#        150
#        22223
#        50091
#        68024
#        131888
#        163664
#        177986
#        215749
#        240940
#        265898
#
# Disc length: 3789 seconds
#
# Revision: 0
# Processed by: cddbd v1.5.2PL0 Copyright (c) Steve Scherf et al.
# Submitted via: ExactAudioCopy v0.99pb3
#
DISCID=960ecb0a
DTITLE=De 2 En Blues - Directo
DYEAR=1997
DGENRE=Blues
TTITLE0=Blues Aint´t (Is) Nothing
TTITLE1=No Guerras
TTITLE2=You Were Wrong
TTITLE3=Blues Medley
TTITLE4=Balada Para M
TTITLE5=Messin´ With The Kid
TTITLE6=Por Qué Canto Blues
TTITLE7=Simple Man
TTITLE8=One Way Out
TTITLE9=Amazing Grace
EXTD=
EXTT0=
EXTT1=
EXTT2=
EXTT3=
EXTT4=
EXTT5=
EXTT6=
EXTT7=
EXTT8=
EXTT9=
PLAYORDER=
